<?xml version="1.0" encoding="UTF-8"?>
<svg id="Layer_1" data-name="Layer 1" xmlns="http://www.w3.org/2000/svg" xmlns:xlink="http://www.w3.org/1999/xlink" viewBox="0 0 1867.68 575.03">
  <defs>
    <style>
      .cls-1 {
        fill: #fff;
      }

      .cls-2 {
        filter: url(#drop-shadow-1);
      }
    </style>
    <filter id="drop-shadow-1" x="0" y="0" width="1867.68" height="575.03" filterUnits="userSpaceOnUse">
      <feOffset dx="0" dy="31"/>
      <feGaussianBlur result="blur" stdDeviation="21"/>
      <feFlood flood-color="#000" flood-opacity=".58"/>
      <feComposite in2="blur" operator="in"/>
      <feComposite in="SourceGraphic"/>
    </filter>
  </defs>
  <g class="cls-2">
    <path d="M137.18,0h1593.32c75.71,0,137.18,61.47,137.18,137.18v300.68c0,75.71-61.47,137.18-137.18,137.18H137.18C61.47,575.03,0,513.57,0,437.85V137.18C0,61.47,61.47,0,137.18,0Z"/>
    <path class="cls-1" d="M1053.22,245.1c-12.98,9.02-21.8,18.08-26.46,27.18-4.67,9.1-7,18.95-7,29.55,0,8.39,1.38,16.06,4.15,23.02,2.77,6.96,6.68,13.57,11.75,19.82,5.06,6.25,13.53,12.46,25.4,18.63-4.59,13.45-11.71,27.18-21.36,41.18-9.65,14-18.39,23.93-26.23,29.79-7.83,5.86-15.31,8.78-22.43,8.78-5.7,0-13.37-1.82-23.02-5.46l-4.51-1.66-7.36-3.09c-5.22-1.58-11-2.37-17.33-2.37s-13.77,1.42-21.84,4.27l-5.7,2.14-7.12,2.85c-5.7,2.22-11.39,3.32-17.09,3.32-12.03,0-24.92-8.43-38.69-25.28-13.77-16.85-24.17-34.97-31.21-54.35-7.04-19.38-10.56-38.96-10.56-58.74,0-25.47,7.24-46.68,21.72-63.61,14.48-16.93,34.14-25.4,58.98-25.4,9.02,0,17.48,1.66,25.4,4.98l5.46,2.14,5.7,2.37c5.06,2.06,9.1,3.08,12.1,3.08,4.43,0,8.86-.87,13.29-2.61l7.6-2.85,5.46-2.14c8.86-3.32,18.67-4.98,29.43-4.98,25.47,0,45.96,9.81,61.47,29.43ZM992.94,131.99c.32,3.48.48,6.17.48,8.07,0,9.81-2.85,19.94-8.54,30.38-5.7,10.44-13.14,18.55-22.31,24.33-9.18,5.78-19.31,8.66-30.38,8.66-.47-3.8-.71-6.56-.71-8.31,0-8.38,2.49-17.21,7.48-26.46,4.98-9.26,11.75-17.13,20.29-23.62,8.54-6.49,18.19-10.6,28.96-12.34.95-.16,2.53-.39,4.75-.71Z"/>
  </g>
</svg>