<?xml version="1.0" encoding="UTF-8"?>
<svg id="Layer_1" data-name="Layer 1" xmlns="http://www.w3.org/2000/svg" xmlns:xlink="http://www.w3.org/1999/xlink" viewBox="0 0 1867.68 575.03">
  <defs>
    <style>
      .cls-1 {
        fill: url(#linear-gradient-2);
      }

      .cls-2 {
        fill: #fff;
      }

      .cls-3 {
        fill: url(#linear-gradient-4);
      }

      .cls-4 {
        fill: url(#linear-gradient-3);
      }

      .cls-5 {
        fill: url(#linear-gradient);
      }
    </style>
    <linearGradient id="linear-gradient" x1="143.38" y1="-29.21" x2="457.93" y2="229.22" gradientUnits="userSpaceOnUse">
      <stop offset="0" stop-color="#32a071"/>
      <stop offset=".07" stop-color="#2da771"/>
      <stop offset=".48" stop-color="#15cf74"/>
      <stop offset=".8" stop-color="#06e775"/>
      <stop offset="1" stop-color="#00f076"/>
    </linearGradient>
    <linearGradient id="linear-gradient-2" x1="569.39" y1="285.81" x2="334.52" y2="287.19" gradientUnits="userSpaceOnUse">
      <stop offset="0" stop-color="#00a0ff"/>
      <stop offset="0" stop-color="#00a1ff"/>
      <stop offset=".26" stop-color="#00beff"/>
      <stop offset=".51" stop-color="#00d2ff"/>
      <stop offset=".76" stop-color="#00dfff"/>
      <stop offset="1" stop-color="#00e3ff"/>
    </linearGradient>
    <linearGradient id="linear-gradient-3" x1="602.29" y1="293.66" x2="390.28" y2="277.03" gradientUnits="userSpaceOnUse">
      <stop offset="0" stop-color="#ffe000"/>
      <stop offset=".41" stop-color="#ffbd00"/>
      <stop offset=".78" stop-color="orange"/>
      <stop offset="1" stop-color="#ff9c00"/>
    </linearGradient>
    <linearGradient id="linear-gradient-4" x1="574.68" y1="261.28" x2="166.6" y2="532.18" gradientUnits="userSpaceOnUse">
      <stop offset="0" stop-color="#ff3a44"/>
      <stop offset="1" stop-color="#c31162"/>
    </linearGradient>
  </defs>
  <rect width="1867.68" height="575.03" rx="137.18" ry="137.18"/>
  <g>
    <path class="cls-2" d="M734.9,191c0,8.6-2.55,15.45-7.65,20.55-5.79,6.07-13.34,9.11-22.62,9.11s-16.45-3.08-22.66-9.24c-6.22-6.16-9.33-13.8-9.33-22.92s3.11-16.76,9.33-22.92c6.21-6.16,13.77-9.25,22.66-9.25,4.41,0,8.63.86,12.64,2.58,4.01,1.72,7.23,4.01,9.63,6.88l-5.41,5.42c-4.08-4.87-9.69-7.31-16.86-7.31-6.48,0-12.09,2.28-16.82,6.83-4.73,4.56-7.1,10.48-7.1,17.76s2.36,13.2,7.1,17.76c4.73,4.56,10.33,6.83,16.82,6.83,6.88,0,12.61-2.29,17.2-6.87,2.98-2.99,4.7-7.14,5.16-12.47h-22.36v-7.4h29.84c.29,1.61.43,3.15.43,4.65Z"/>
    <path class="cls-2" d="M782.21,165.29h-28.04v19.52h25.29v7.4h-25.29v19.52h28.04v7.57h-35.95v-61.57h35.95v7.57Z"/>
    <path class="cls-2" d="M815.57,219.29h-7.92v-54.01h-17.2v-7.57h42.31v7.57h-17.2v54.01Z"/>
    <path class="cls-2" d="M863.38,219.29v-61.57h7.91v61.57h-7.91Z"/>
    <path class="cls-2" d="M906.39,219.29h-7.92v-54.01h-17.2v-7.57h42.31v7.57h-17.2v54.01Z"/>
    <path class="cls-2" d="M1003.68,211.34c-6.05,6.22-13.58,9.33-22.58,9.33s-16.53-3.11-22.57-9.33c-6.05-6.22-9.07-13.83-9.07-22.83s3.02-16.61,9.07-22.83c6.04-6.22,13.57-9.34,22.57-9.34s16.46,3.13,22.54,9.38c6.07,6.25,9.11,13.84,9.11,22.79s-3.03,16.61-9.07,22.83ZM964.38,206.18c4.56,4.61,10.13,6.92,16.73,6.92s12.18-2.3,16.73-6.92c4.56-4.61,6.85-10.51,6.85-17.67s-2.29-13.06-6.85-17.67c-4.55-4.61-10.13-6.92-16.73-6.92s-12.17,2.3-16.73,6.92c-4.55,4.61-6.83,10.51-6.83,17.67s2.28,13.06,6.83,17.67Z"/>
    <path class="cls-2" d="M1023.86,219.29v-61.57h9.63l29.92,47.9h.34l-.34-11.87v-36.03h7.92v61.57h-8.26l-31.31-50.22h-.34l.34,11.87v38.35h-7.91Z"/>
  </g>
  <path class="cls-2" d="M947.51,309.1c-12.16,0-23.19,4.66-31.14,12.52-7.83,7.74-12.67,18.58-12.67,31.13,0,13.27,5.49,24.7,14.22,32.53,7.8,7,18.2,11.12,29.59,11.12,10.71,0,20.54-3.65,28.17-9.9,9.56-7.84,15.65-19.77,15.65-33.75,0-10.35-3.3-19.54-8.84-26.78-8.01-10.46-20.71-16.86-34.97-16.86ZM947.51,379.2c-13.23,0-24.63-10.91-24.63-26.45s11.41-26.45,24.63-26.45,24.63,10.75,24.63,26.45-11.41,26.45-24.63,26.45ZM851.94,309.1c-9.05,0-17.48,2.58-24.47,7.14-11.66,7.6-19.34,20.7-19.34,36.51,0,12.57,4.92,23.48,12.85,31.25,7.94,7.77,18.89,12.4,30.96,12.4,10.01,0,19.25-3.18,26.64-8.7,10.43-7.79,17.17-20.23,17.17-34.94,0-8.39-2.16-16.01-5.93-22.46-7.6-12.99-21.74-21.19-37.88-21.19ZM851.94,379.2c-13.23,0-24.63-10.91-24.63-26.45s11.41-26.45,24.63-26.45,24.63,10.75,24.63,26.45-11.41,26.45-24.63,26.45ZM738.24,322.5v18.52h44.31c-1.32,10.42-4.79,18.02-10.09,23.31-6.45,6.45-16.53,13.56-34.22,13.56-27.28,0-48.61-21.99-48.61-49.27s21.33-49.27,48.61-49.27c14.72,0,25.46,5.79,33.4,13.23l13.06-13.06c-11.08-10.58-25.79-18.68-46.46-18.68-12.69,0-24.7,3.51-35.02,9.61-20.06,11.86-33.76,33.5-33.76,58.17s14.57,47.68,35.67,59.27c9.88,5.43,21.19,8.52,33.1,8.52,20.17,0,35.38-6.61,47.28-19.01,12.23-12.23,16.04-29.43,16.04-43.32,0-4.3-.33-8.27-.99-11.57h-62.33ZM1203.21,336.88c-3.64-9.75-14.71-27.77-37.36-27.77-9.67,0-18.65,3.28-25.73,9.08-9.38,7.68-15.44,19.78-15.44,34.57,0,24.47,18.52,43.65,43.32,43.65,20,0,31.58-12.23,36.37-19.34l-14.88-9.92c-4.96,7.27-11.74,12.07-21.49,12.07s-16.7-4.46-21.16-13.23l58.36-24.14-1.98-4.96ZM1143.69,351.43c-.5-16.86,13.06-25.46,22.81-25.46,7.61,0,14.05,3.8,16.2,9.26l-20.38,8.46-18.63,7.74ZM1096.24,393.75h19.18v-128.29h-19.18v128.29ZM1064.83,318.86h-.66c-4.3-5.12-12.57-9.75-22.98-9.75s-19.79,4.1-27.31,10.95c-8.74,7.96-14.52,19.62-14.52,32.87,0,15.29,7.81,28.46,19,36.18,6.71,4.63,14.64,7.31,22.82,7.31,10.42,0,18.68-4.63,22.98-9.92h.66v6.28c0,16.7-8.93,25.63-23.31,25.63-11.74,0-19.01-8.43-21.99-15.54l-16.7,6.94c4.79,11.57,17.52,25.79,38.69,25.79,22.49,0,41.5-13.23,41.5-45.47v-78.37h-18.19v7.11ZM1042.84,379.2c-13.23,0-24.3-11.08-24.3-26.29s11.08-26.62,24.3-26.62,23.31,11.24,23.31,26.62-10.25,26.29-23.31,26.29ZM1293.04,265.46h-45.88v128.29h19.15v-48.61h26.74c12.2,0,24.29-5.08,32.36-14.05,5.96-6.63,9.73-15.39,9.73-25.79s-3.66-18.91-9.48-25.51c-8.07-9.15-20.28-14.34-32.61-14.34ZM1293.54,327.29h-27.23v-43.98h27.23c14.32,0,22.45,11.85,22.45,21.99s-8.13,21.99-22.45,21.99ZM1411.88,308.87c-13.86,0-28.22,6.11-34.17,19.64l17,7.1c3.63-7.1,10.4-9.41,17.5-9.41,9.9,0,19.97,5.94,20.14,16.5v1.32c-3.47-1.98-10.89-4.95-19.97-4.95-7.88,0-15.82,1.86-22.31,5.48-8.6,4.8-14.66,12.68-14.66,23.4,0,9.31,4.42,16.82,11.15,21.75,5.68,4.16,13,6.47,20.71,6.47,12.87,0,19.97-5.78,24.43-12.54h.66v9.9h18.49v-49.18c0-13.52-5.99-23.49-15.45-29.37-6.48-4.02-14.58-6.12-23.5-6.12ZM1409.57,379.18c-6.27,0-15.02-3.14-15.02-10.89,0-9.9,10.89-13.7,20.3-13.7,8.42,0,12.38,1.82,17.49,4.29-1.49,11.88-11.72,20.3-22.78,20.3ZM1518.17,311.67l-9.09,23.03-12.86,32.59h-.66l-22.78-55.62h-20.63l16.48,37.5,17.69,40.24-19.48,43.24h19.97l37.35-85.83,15.3-35.16h-21.29ZM1345.69,393.75h19.15v-128.29h-19.15v128.29Z"/>
  <path class="cls-5" d="M524.29,242.75l-152.5-89.48c-7.8-4.58-17.02-1.96-21.78,4.47l129.16,129.91,45.13-44.91Z"/>
  <path class="cls-1" d="M346.78,406.98c0,3.62,1.11,6.85,2.95,9.48l129.43-128.8-129.16-129.91c-2,2.7-3.22,6.06-3.22,9.85v239.38Z"/>
  <path class="cls-4" d="M523.52,332.27l52.27-30.67c10.93-6.42,10.93-22.22,0-28.64l-51.5-30.21-45.13,44.91,44.36,44.62Z"/>
  <path class="cls-3" d="M349.73,416.45c4.68,6.7,14.11,9.51,22.06,4.84l151.73-89.02-44.36-44.62-129.43,128.8Z"/>
</svg>