<?xml version="1.0" encoding="UTF-8"?>
<svg id="Layer_1" data-name="Layer 1" xmlns="http://www.w3.org/2000/svg" xmlns:xlink="http://www.w3.org/1999/xlink" viewBox="0 0 1867.68 575.03">
  <defs>
    <style>
      .cls-1 {
        fill: #fff;
      }

      .cls-2 {
        filter: url(#drop-shadow-1);
      }
    </style>
    <filter id="drop-shadow-1" x="0" y="0" width="1867.68" height="575.03" filterUnits="userSpaceOnUse">
      <feOffset dx="0" dy="31"/>
      <feGaussianBlur result="blur" stdDeviation="21"/>
      <feFlood flood-color="#000" flood-opacity=".58"/>
      <feComposite in2="blur" operator="in"/>
      <feComposite in="SourceGraphic"/>
    </filter>
  </defs>
  <g class="cls-2">
    <path d="M137.18,0h1593.32c75.71,0,137.18,61.47,137.18,137.18v300.68c0,75.71-61.47,137.18-137.18,137.18H137.18C61.47,575.03,0,513.57,0,437.85V137.18C0,61.47,61.47,0,137.18,0Z"/>
    <g>
      <g>
        <path class="cls-1" d="M735.6,147.05c20.67,0,32.88,12.89,32.88,34.81s-12.17,34.86-32.88,34.86h-23.42v-69.68h23.42ZM720.87,208.9h14.15c15.79,0,24.58-9.66,24.58-26.94s-8.74-27.09-24.58-27.09h-14.15v54.03Z"/>
        <path class="cls-1" d="M780.43,191.62c0-16.03,9.37-25.98,23.27-25.98s23.23,9.95,23.23,25.98-9.37,25.98-23.23,25.98-23.27-10-23.27-25.98ZM818.38,191.62c0-11.83-5.79-18.59-14.68-18.59s-14.73,6.76-14.73,18.59,5.84,18.59,14.73,18.59,14.68-6.76,14.68-18.59Z"/>
        <path class="cls-1" d="M890.2,216.73h-8.55l-11.35-38.87h-.19l-11.3,38.87h-8.55l-14.05-50.22h8.35l10.04,40.85h.19l11.35-40.85h8.11l11.4,40.85h.19l10.04-40.85h8.31l-14,50.22Z"/>
        <path class="cls-1" d="M916,166.51h7.92v8.02h.19c2.8-5.41,8.16-8.88,15.93-8.88,11.01,0,17.38,7.1,17.38,18.49v32.59h-8.4v-31.1c0-8.11-3.82-12.55-11.54-12.55s-13.09,5.6-13.09,14.1v29.55h-8.4v-50.22Z"/>
        <path class="cls-1" d="M973.48,147.05h8.4v69.68h-8.4v-69.68Z"/>
        <path class="cls-1" d="M995.71,191.62c0-16.03,9.37-25.98,23.27-25.98s23.23,9.95,23.23,25.98-9.37,25.98-23.23,25.98-23.27-10-23.27-25.98ZM1033.66,191.62c0-11.83-5.79-18.59-14.68-18.59s-14.73,6.76-14.73,18.59,5.84,18.59,14.73,18.59,14.68-6.76,14.68-18.59Z"/>
        <path class="cls-1" d="M1053.58,202.53c0-8.6,6.62-14,18.2-14.68l14.39-.82v-4.2c0-6.13-4.06-9.8-11.01-9.8-6.47,0-10.53,3.04-11.59,7.97h-8.11c.58-8.69,8.02-15.36,19.89-15.36s19.22,6.37,19.22,16.37v34.72h-7.97v-8.64h-.19c-2.99,5.75-9.37,9.51-16.13,9.51-10,0-16.71-6.04-16.71-15.07ZM1086.17,197.65v-4.1l-13.42.82c-6.76.43-10.62,3.43-10.62,8.16s4.01,7.92,10.04,7.92c7.92,0,14-5.55,14-12.8Z"/>
        <path class="cls-1" d="M1107.72,191.62c0-15.74,8.64-25.98,21.29-25.98,7.19,0,12.99,3.52,15.98,9.03h.19v-27.62h8.4v69.68h-8.02v-8.5h-.14c-3.24,5.79-8.98,9.37-16.22,9.37-12.8,0-21.49-10.24-21.49-25.98ZM1116.32,191.62c0,11.4,5.6,18.59,14.49,18.59s14.44-7.34,14.44-18.59-5.79-18.59-14.44-18.59-14.49,7.24-14.49,18.59Z"/>
        <path class="cls-1" d="M1192.65,191.62c0-16.03,9.37-25.98,23.27-25.98s23.23,9.95,23.23,25.98-9.37,25.98-23.23,25.98-23.27-10-23.27-25.98ZM1230.6,191.62c0-11.83-5.79-18.59-14.68-18.59s-14.73,6.76-14.73,18.59,5.84,18.59,14.73,18.59,14.68-6.76,14.68-18.59Z"/>
        <path class="cls-1" d="M1252.54,166.51h7.92v8.02h.19c2.8-5.41,8.16-8.88,15.93-8.88,11.01,0,17.38,7.1,17.38,18.49v32.59h-8.4v-31.1c0-8.11-3.82-12.55-11.54-12.55s-13.09,5.6-13.09,14.1v29.55h-8.4v-50.22Z"/>
        <path class="cls-1" d="M1345.92,154.39v12.12h9.75v6.91h-9.75v29.84c0,4.59,1.93,6.66,6.23,6.66.97,0,2.9-.15,3.48-.24v7.05c-1.01.24-3.33.39-5.31.39-9.22,0-12.8-3.77-12.8-13.42v-30.28h-7.48v-6.91h7.48v-12.12h8.4Z"/>
        <path class="cls-1" d="M1369.98,147.05h8.4v27.48h.19c2.8-5.6,8.31-8.88,15.93-8.88,11.01,0,17.67,7.44,17.67,18.64v32.45h-8.4v-30.9c0-7.97-4.01-12.75-11.88-12.75-8.35,0-13.52,5.7-13.52,14.39v29.26h-8.4v-69.68Z"/>
        <path class="cls-1" d="M1469.37,202.34c-1.45,8.79-9.95,15.26-20.91,15.26-14.39,0-23.13-10-23.13-25.79s8.88-26.17,22.74-26.17,21.92,9.85,21.92,25.06v3.19h-36.02v.48c0,9.61,5.65,15.93,14.68,15.93,6.37,0,11.06-3.23,12.46-7.97h8.26ZM1434.03,187.32h27.28c-.19-8.4-5.46-14.39-13.38-14.39s-13.38,6.04-13.91,14.39Z"/>
      </g>
      <g>
        <path class="cls-1" d="M755.43,272.56h21.74l47.07,129.61h-21.11l-11.86-35.03h-49.94l-11.95,35.03h-21.11l47.16-129.61ZM746.72,350.97h39.07l-19.31-56.95h-.36l-19.4,56.95Z"/>
        <path class="cls-1" d="M845.38,307.68h19.4v16.26h.45c5.66-11.23,16.08-18.05,29.55-18.05,24.07,0,39.52,18.86,39.52,49.04v.09c0,30.09-15.54,49.04-39.25,49.04-13.38,0-24.25-6.83-29.82-17.78h-.45v47.34h-19.4v-125.93ZM914.55,355.01v-.09c0-20.12-9.61-32.42-24.79-32.42s-25.06,12.75-25.06,32.42v.09c0,19.58,10.42,32.33,25.06,32.33s24.79-12.4,24.79-32.33Z"/>
        <path class="cls-1" d="M958.51,307.68h19.4v16.26h.45c5.66-11.23,16.08-18.05,29.55-18.05,24.07,0,39.52,18.86,39.52,49.04v.09c0,30.09-15.54,49.04-39.25,49.04-13.38,0-24.25-6.83-29.82-17.78h-.45v47.34h-19.4v-125.93ZM1027.67,355.01v-.09c0-20.12-9.61-32.42-24.79-32.42s-25.06,12.75-25.06,32.42v.09c0,19.58,10.42,32.33,25.06,32.33s24.79-12.4,24.79-32.33Z"/>
        <path class="cls-1" d="M1114.69,367.67l-.09-1.35h19.58l.18,1.17c1.8,11.95,13.74,19.4,31.08,19.4s28.29-7.81,28.29-19.94v-.09c0-10.42-7.1-16.08-24.25-19.85l-14.1-2.96c-25.42-5.39-37.72-17.07-37.72-36.29v-.09c.09-22.1,19.58-37.27,46.98-37.27s45.54,14.73,46.89,36.47l.09,1.53h-19.58l-.09-1.26c-1.8-12.04-12.22-19.31-27.57-19.31-16.08.09-26.32,7.72-26.32,19.04v.09c0,9.7,7.37,15.63,23.53,19.13l14.19,2.96c26.77,5.66,38.26,16.53,38.26,36.56v.09c0,23.62-18.68,38.62-49.4,38.62-29.1,0-48.32-13.83-49.94-36.65Z"/>
        <path class="cls-1" d="M1244.44,377.29v-54.16h-13.56v-15.45h13.56v-24.61h19.85v24.61h17.69v15.45h-17.69v52.99c0,9.61,4.31,12.48,12.48,12.48,2.07,0,3.77-.18,5.21-.36v15c-2.25.36-5.93.81-9.88.81-18.68,0-27.66-7.9-27.66-26.77Z"/>
        <path class="cls-1" d="M1300.7,354.92v-.18c0-30.18,17.87-48.86,44.73-48.86s44.91,18.59,44.91,48.86v.18c0,30.45-17.78,49.13-44.82,49.13s-44.82-18.77-44.82-49.13ZM1370.49,354.92v-.18c0-20.66-9.88-32.6-25.06-32.6s-24.88,11.95-24.88,32.6v.18c0,20.93,9.88,32.87,25.06,32.87s24.88-12.04,24.88-32.87Z"/>
        <path class="cls-1" d="M1414.54,307.68h19.4v16.17h.45c3.05-11.05,10.96-17.96,21.74-17.96,2.78,0,5.21.45,6.74.72v18.05c-1.53-.63-4.94-1.08-8.71-1.08-12.48,0-20.21,8.17-20.21,22.28v56.32h-19.4v-94.49Z"/>
        <path class="cls-1" d="M1475.84,355.28v-.09c0-29.55,17.07-49.31,43.56-49.31s42.75,19.04,42.75,47.42v6.56h-66.92c.36,17.87,10.15,28.29,25.6,28.29,11.5,0,19.13-5.93,21.56-13.02l.27-.72h18.41l-.18.99c-3.05,15-17.6,28.65-40.51,28.65-27.75,0-44.55-18.95-44.55-48.77ZM1495.51,346.12h47.42c-1.62-16.35-10.78-24.34-23.44-24.34s-22.28,8.53-23.98,24.34Z"/>
      </g>
      <path class="cls-1" d="M535.42,246.87c-12.1,8.41-20.32,16.85-24.67,25.33-4.35,8.48-6.53,17.67-6.53,27.55,0,7.82,1.29,14.97,3.87,21.46,2.58,6.49,6.23,12.65,10.95,18.48,4.72,5.83,12.61,11.62,23.68,17.37-4.28,12.54-10.92,25.33-19.91,38.39-9,13.05-17.15,22.31-24.45,27.77-7.3,5.46-14.27,8.19-20.91,8.19-5.31,0-12.47-1.69-21.46-5.09l-4.2-1.55-6.86-2.88c-4.87-1.47-10.25-2.21-16.15-2.21s-12.83,1.33-20.36,3.98l-5.31,1.99-6.64,2.66c-5.31,2.07-10.62,3.1-15.93,3.1-11.21,0-23.23-7.85-36.07-23.56-12.83-15.71-22.53-32.6-29.1-50.67-6.57-18.07-9.85-36.32-9.85-54.76,0-23.75,6.75-43.51,20.25-59.3,13.5-15.78,31.82-23.67,54.98-23.67,8.41,0,16.3,1.55,23.68,4.65l5.09,1.99,5.31,2.21c4.72,1.92,8.48,2.88,11.28,2.88,4.13,0,8.26-.81,12.39-2.43l7.08-2.66,5.09-1.99c8.26-3.1,17.4-4.65,27.44-4.65,23.75,0,42.85,9.15,57.31,27.44ZM479.21,141.43c.29,3.25.44,5.75.44,7.52,0,9.15-2.66,18.59-7.97,28.32s-12.25,17.3-20.8,22.68c-8.56,5.39-18,8.08-28.32,8.08-.44-3.54-.66-6.12-.66-7.74,0-7.82,2.32-16.04,6.97-24.67,4.65-8.63,10.95-15.97,18.92-22.02,7.97-6.05,16.96-9.88,26.99-11.51.89-.14,2.36-.37,4.43-.66Z"/>
    </g>
  </g>
</svg>