<?xml version="1.0" encoding="UTF-8"?>
<svg id="Layer_1" data-name="Layer 1" xmlns="http://www.w3.org/2000/svg" viewBox="0 0 2000 2000">
  <defs>
    <style>
      .cls-1 {
        fill: #e2bd4b;
      }

      .cls-2 {
        fill: #ac8f31;
      }
    </style>
  </defs>
  <path d="M751.01,776.16c1.41,3.56,2.87,7.11,4.19,10.79-8.56-7.91-16.33-16.69-23.32-26.01-31.59-41.5-46.89-96.69-35.8-148.39,12.65-61.96,60.74-117.55,119.16-140.66-44.97,47.17-85.44,103.7-90.87,170.16-2.88,34.73,3.79,69.09,14.97,102.29,3.33,10.27,7.72,21.62,11.67,31.82Z"/>
  <path d="M1000,147.8c-265.99,0-481.62,215.63-481.62,481.62s384.66,1016.18,476.08,1222.78c107.43-227.26,487.16-956.79,487.16-1222.78s-215.63-481.62-481.62-481.62ZM1271.03,972.88c-54.92,85.1-155.59,94.26-200.13,101.36-44.55,7.1-204.66-20.66-284.72,81.35,0,0-42.05-31.9-48.96-86.38v-.02c-4.29-33.53,4.75-75.62,45.09-124.07,0,0,58.43-71.34,169.15-76.83l264.05.66-138.7-101.74-17.86,64.29h-211.43s-174.96-9.04-168.51-176.9c6.46-167.86,170.44-218.22,170.44-218.22,0,0,36.16-10.33,57.46-10.33s273.31,5.6,299.99-83.71c0,0,30.15,19.35,42.95,64.23v.03c4.9,17.18,7.26,38.12,4.4,63.14-10.33,90.39-80.06,120.51-155.81,148.92-62.64,23.49-256.62,18.14-321.89,15.58l140.97,98.85,13.93-59.77h227.89s85.59,6.79,120.73,65.21c33.2,55.19,49.71,143.32-9.04,234.35Z"/>
  <g>
    <g>
      <path class="cls-1" d="M751.01,776.16c1.41,3.56,2.87,7.11,4.19,10.79-8.56-7.91-16.33-16.69-23.32-26.01-31.59-41.5-46.89-96.69-35.8-148.39,12.65-61.96,60.74-117.55,119.16-140.66-44.97,47.17-85.44,103.7-90.87,170.16-2.88,34.73,3.79,69.09,14.97,102.29,3.33,10.27,7.72,21.62,11.67,31.82Z"/>
      <path class="cls-2" d="M751.01,776.16c1.41,3.56,2.87,7.11,4.19,10.79-8.56-7.91-16.33-16.69-23.32-26.01-31.59-41.5-46.89-96.69-35.8-148.39,12.65-61.96,60.74-117.55,119.16-140.66-44.97,47.17-85.44,103.7-90.87,170.16-2.88,34.73,3.79,69.09,14.97,102.29,3.33,10.27,7.72,21.62,11.67,31.82Z"/>
    </g>
    <g>
      <path d="M751.01,776.16c1.41,3.56,2.87,7.11,4.19,10.79-8.56-7.91-16.33-16.69-23.32-26.01-31.59-41.5-46.89-96.69-35.8-148.39,12.65-61.96,60.74-117.55,119.16-140.66-44.97,47.17-85.44,103.7-90.87,170.16-2.88,34.73,3.79,69.09,14.97,102.29,3.33,10.27,7.72,21.62,11.67,31.82Z"/>
      <line x1="1058.95" y1="831.5" x2="1058.41" y2="833.43"/>
      <path d="M751.01,776.16c1.41,3.56,2.87,7.11,4.19,10.79-8.56-7.91-16.33-16.69-23.32-26.01-31.59-41.5-46.89-96.69-35.8-148.39,12.65-61.96,60.74-117.55,119.16-140.66-44.97,47.17-85.44,103.7-90.87,170.16-2.88,34.73,3.79,69.09,14.97,102.29,3.33,10.27,7.72,21.62,11.67,31.82Z"/>
      <path d="M737.22,1069.19v.02s-.02,0-.02.02"/>
    </g>
  </g>
</svg>