<?xml version="1.0" encoding="UTF-8"?>
<svg id="Layer_1" data-name="Layer 1" xmlns="http://www.w3.org/2000/svg" viewBox="0 0 2000 1000">
  <defs>
    <style>
      .cls-1 {
        fill: #e2bd4b;
      }

      .cls-2 {
        fill: none;
      }

      .cls-3 {
        fill: #ac8f31;
      }
    </style>
  </defs>
  <g>
    <path d="M758.48,293.45c0,148.26-211.66,554.89-271.53,681.55-50.96-115.15-265.36-533.29-265.36-681.55S341.77,25,490.03,25s268.45,120.19,268.45,268.45Z"/>
    <g>
      <path class="cls-3" d="M631.75,204.44c-5.76,50.38-44.62,67.17-86.84,83.01-34.92,13.09-143.03,10.11-179.41,8.68l100.25-49.95v27.59s168.52,9.22,163.56-104.52c2.73,9.58,4.05,21.25,2.45,35.19Z"/>
      <path class="cls-3" d="M507.6,478.05l2.16-32.39s-144.54-6.32-166.2,92.9c-2.39-18.69,2.65-42.14,25.14-69.15,0,0,32.57-39.76,94.28-42.82l147.18.37-102.56,51.09Z"/>
      <path class="cls-1" d="M641.1,484.89c-30.61,47.43-86.72,52.54-111.55,56.5-24.83,3.96-114.07-11.52-158.69,45.34,0,0-23.44-17.78-27.29-48.15h0c21.66-99.23,166.2-92.91,166.2-92.91l-2.16,32.39,102.56-51.09-77.31-56.71-9.96,35.83h-117.85s-97.52-5.04-93.92-98.6c3.6-93.56,95-121.63,95-121.63,0,0,20.15-5.76,32.03-5.76s152.34,3.12,167.21-46.66c0,0,16.8,10.78,23.94,35.8v.02c4.96,113.75-163.56,104.52-163.56,104.52v-27.59l-100.25,49.95,78.57,55.1,7.76-33.32h127.03s47.7,3.78,67.29,36.34c18.5,30.76,27.71,79.89-5.04,130.62Z"/>
      <line class="cls-2" x1="522.89" y1="406.08" x2="522.59" y2="407.16"/>
      <path class="cls-3" d="M387.05,205.64c-25.06,26.29-47.62,57.8-50.65,94.84-1.6,19.36,2.11,38.51,8.34,57.01,1.86,5.73,4.3,12.05,6.51,17.74.78,1.98,1.6,3.96,2.33,6.01-4.77-4.41-9.1-9.3-13-14.5-17.61-23.13-26.13-53.89-19.95-82.71,7.05-34.53,33.86-65.52,66.41-78.4h0Z"/>
      <path class="cls-2" d="M343.55,538.59s0,0,0-.01h0"/>
    </g>
  </g>
  <g>
    <path d="M795.35,478.33l75.24-312.49c.37-1.55,1.76-2.64,3.35-2.64h129.97c1.59,0,2.97,1.09,3.35,2.63l75.7,312.49c.52,2.17-1.12,4.25-3.35,4.25h-77.42c-1.56,0-2.92-1.05-3.33-2.55l-12.79-47.73c-.4-1.51-1.77-2.55-3.33-2.55h-89.96c-1.58,0-2.96,1.08-3.34,2.61l-11.91,47.62c-.38,1.53-1.76,2.61-3.34,2.61h-75.5c-2.23,0-3.87-2.08-3.35-4.25ZM906.16,364.17h65.08c2.19,0,3.82-2.01,3.37-4.15l-26.86-127.56c-.34-1.59-1.74-2.73-3.37-2.73h-10.47c-1.62,0-3.02,1.13-3.36,2.71l-27.75,127.56c-.47,2.15,1.17,4.17,3.36,4.17Z"/>
    <path d="M1109.46,479.13V166.64c0-1.9,1.54-3.44,3.44-3.44h123.19c1.55,0,2.91,1.04,3.32,2.53l43.98,159.98c.94,3.4,5.78,3.36,6.66-.06l40.94-159.87c.39-1.52,1.76-2.59,3.34-2.59h126.45c1.9,0,3.44,1.54,3.44,3.44v312.49c0,1.9-1.54,3.44-3.44,3.44h-77.09c-1.9,0-3.44-1.54-3.44-3.44v-199.74c0-1.9-1.54-3.44-3.44-3.44h0c-1.58,0-2.95,1.07-3.34,2.6l-49.17,195.29c-.39,1.53-1.76,2.6-3.34,2.6h-68.69c-1.58,0-2.96-1.08-3.34-2.61l-48.7-195.28c-.38-1.53-1.76-2.61-3.34-2.61h0c-1.9,0-3.44,1.54-3.44,3.44v199.74c0,1.9-1.54,3.44-3.44,3.44h-77.09c-1.9,0-3.44-1.54-3.44-3.44Z"/>
    <path d="M1490.71,478.33l75.24-312.49c.37-1.55,1.76-2.64,3.35-2.64h129.97c1.59,0,2.97,1.09,3.35,2.63l75.7,312.49c.52,2.17-1.12,4.25-3.35,4.25h-77.42c-1.56,0-2.92-1.05-3.33-2.55l-12.79-47.73c-.4-1.51-1.77-2.55-3.33-2.55h-89.96c-1.58,0-2.96,1.08-3.34,2.61l-11.91,47.62c-.38,1.53-1.76,2.61-3.34,2.61h-75.5c-2.23,0-3.87-2.08-3.35-4.25ZM1601.52,364.17h65.08c2.19,0,3.82-2.01,3.37-4.15l-26.86-127.56c-.34-1.59-1.74-2.73-3.37-2.73h-10.47c-1.62,0-3.02,1.13-3.36,2.71l-27.75,127.56c-.47,2.15,1.17,4.17,3.36,4.17Z"/>
  </g>
  <g>
    <path d="M1219.12,608.84c1.72,5.89,2.57,12.2,2.57,18.95v39.17h-178.58c-5.39,0-10.73-1.01-16-3.03-2.65-1.02-5.19-2.28-7.62-3.78-.86.6-1.75,1.15-2.68,1.66-6.25,3.43-14.22,5.15-23.91,5.15h-41.19v-68.42h-63.82c-4.17,0-7.48.4-9.93,1.2-2.46.8-4.2,1.99-5.24,3.59-1.05,1.59-1.57,3.61-1.57,6.06,0,2.09.67,3.87,2.02,5.34,1.35,1.47,3.22,2.76,5.61,3.86,2.4,1.1,5.06,2.09,8,2.94,2.95.86,6.07,1.84,9.38,2.95,7.11,2.08,13.31,4.38,18.58,6.89,5.27,2.52,9.68,5.4,13.24,8.65s6.25,7.05,8.09,11.4c1.84,4.35,2.76,9.47,2.76,15.36,0,8.94-2.08,16.85-6.25,23.72-4.17,6.87-10,12.26-17.47,16.19-7.48,3.92-16.31,5.88-26.49,5.88h-52.04c-8.22,0-15.85-1.17-22.9-3.49-7.05-2.33-13.18-5.58-18.39-9.75-5.22-4.17-9.29-9.04-12.23-14.62-2.95-5.58-4.42-11.62-4.42-18.12,0-2.33.19-5.27.55-8.83.37-3.55.86-7.66,1.48-12.32.61-4.66,1.34-9.68,2.2-15.08l27.77,3.68c-1.22,7.6-2.17,14.25-2.85,19.95-.67,5.71-1.01,9.78-1.01,12.23,0,4.29,1.23,8.13,3.68,11.5,2.45,3.37,5.91,6,10.39,7.91,4.48,1.9,9.72,2.85,15.73,2.85h52.04c7.6,0,13.18-1.81,16.74-5.43s5.33-9.04,5.33-16.27c0-3.8-.61-6.75-1.84-8.83-1.22-2.09-3.49-3.89-6.8-5.43-3.31-1.53-8.09-3.22-14.35-5.05-7.84-2.58-14.59-4.97-20.23-7.18-5.64-2.2-10.27-4.6-13.88-7.17-3.62-2.57-6.29-5.64-8-9.2-1.72-3.55-2.58-7.9-2.58-13.05,0-8.22,1.87-14.99,5.61-20.33,3.74-5.33,9.04-9.34,15.91-12.04,6.87-2.7,14.9-4.05,24.09-4.05h91.23v68.42h13.05c3.8,0,6.75-.58,8.83-1.75,2.09-1.16,3.52-3.55,4.32-7.17s1.2-9.11,1.2-16.46v-33.29h28.14v33.29c0,8.55-.85,15.94-2.54,22.17,1.15.74,2.31,1.35,3.46,1.83,2.21.92,4.47,1.38,6.8,1.38h19.68v-26.3c0-1.84-.21-4.75-.64-8.74-.43-3.98-1.05-8.52-1.84-13.61-.8-5.09-1.69-10.27-2.67-15.54l27.77-4.23c.86,4.41,1.69,9.38,2.49,14.9.79,5.52,1.5,10.73,2.11,15.63.61,4.91.92,8.77.92,11.59v26.3h102.81v-15.08c0-6.26-.64-11.22-1.93-14.9s-3.16-6.31-5.61-7.91c-2.45-1.59-5.58-2.39-9.38-2.39h-40.46l-16.74-24.09,9.75-18.58c.98-1.84,2.11-3.89,3.4-6.16,1.29-2.27,3-5.09,5.15-8.46,2.15-3.37,4.88-7.63,8.19-12.78l23.72,13.24c-3.07,4.41-5.52,8.16-7.36,11.22-1.83,3.07-3.4,5.7-4.69,7.91-1.28,2.2-2.48,4.41-3.58,6.62l-3.7,6.99h26.32c7.97,0,14.77,1.28,20.41,3.86,5.64,2.57,10.27,6.16,13.89,10.76,3.61,4.6,6.28,9.84,8,15.72Z"/>
    <rect x="827.38" y="727.84" width="26.85" height="22.43"/>
    <rect x="1313.84" y="534.91" width="26.85" height="22.44"/>
    <polygon points="1331.12 574.45 1359.26 574.45 1359.26 666.96 1250.39 666.96 1250.39 537.67 1278.34 537.67 1278.34 642.87 1331.12 642.87 1331.12 574.45"/>
    <rect x="1350.07" y="534.91" width="26.85" height="22.44"/>
    <rect x="863.61" y="727.84" width="26.85" height="22.43"/>
    <path d="M1765.17,604.98c-.62-4.9-1.36-10.11-2.21-15.63-.86-5.52-1.72-10.49-2.58-14.9l-27.58,4.23c.98,5.27,1.86,10.45,2.66,15.54.8,5.09,1.41,9.63,1.84,13.61.43,3.99.65,6.9.65,8.74v26.3h-19.87c-2.2,0-4.41-.46-6.62-1.38-1.2-.5-2.41-1.14-3.62-1.93,1.68-6.2,2.52-13.56,2.52-22.07v-33.29h-28.14v33.29c0,7.35-.4,12.84-1.2,16.46-.79,3.62-2.2,6.01-4.23,7.17-2.02,1.17-4.93,1.75-8.73,1.75h-13.06v-49.48h-28.14v49.48h-39.91v-21.52c0-11.65-1.87-20.9-5.61-27.77-3.74-6.87-9.32-11.83-16.73-14.9-7.42-3.06-16.77-4.6-28.05-4.6-7.73,0-14.81.55-21.24,1.66-6.44,1.1-11.13,2.2-14.07,3.31-.74,2.7-1.54,6.37-2.39,11.03-.86,4.66-1.57,9.84-2.12,15.54-.55,5.71-.83,11.56-.83,17.57s.25,11.68.74,17.01c.08.91.17,1.8.26,2.67h-40.72v-105.2h-27.96v129.29h239.83c9.68,0,17.62-1.72,23.82-5.15.93-.52,1.83-1.08,2.69-1.69,2.43,1.51,4.96,2.78,7.6,3.81,5.21,2.02,10.52,3.03,15.91,3.03h48.01v-50.39c0-2.82-.31-6.68-.92-11.59ZM1558.81,642.87h-33.56c-.26-2.12-.51-4.39-.74-6.81-.43-4.53-.64-8.83-.64-12.87,0-4.42.21-8.98.64-13.7.34-3.74.76-7.35,1.25-10.82,3.52-.33,7.11-.49,10.8-.49,5.76,0,10.27.67,13.52,2.02,3.24,1.35,5.51,3.68,6.8,6.99,1.29,3.31,1.93,7.97,1.93,13.98v21.7Z"/>
  </g>
</svg>